<svg width="10" height="12" viewBox="0 0 10 12" fill="none" xmlns="http://www.w3.org/2000/svg">
<path d="M0.833338 5.16666H7.15834L4.40834 2.42499C4.25142 2.26807 4.16326 2.05524 4.16326 1.83333C4.16326 1.61141 4.25142 1.39858 4.40834 1.24166C4.56526 1.08474 4.77809 0.996582 5 0.996582C5.22192 0.996582 5.43475 1.08474 5.59167 1.24166L9.75834 5.40833C9.83421 5.48758 9.89368 5.58103 9.93334 5.68333C10.0167 5.88621 10.0167 6.11377 9.93334 6.31666C9.89368 6.41895 9.83421 6.51241 9.75834 6.59166L5.59167 10.7583C5.5142 10.8364 5.42203 10.8984 5.32049 10.9407C5.21894 10.983 5.11001 11.0048 5 11.0048C4.88999 11.0048 4.78107 10.983 4.67952 10.9407C4.57797 10.8984 4.48581 10.8364 4.40834 10.7583C4.33023 10.6809 4.26824 10.5887 4.22593 10.4871C4.18362 10.3856 4.16184 10.2767 4.16184 10.1667C4.16184 10.0566 4.18362 9.94773 4.22593 9.84618C4.26824 9.74463 4.33023 9.65246 4.40834 9.57499L7.15834 6.83333H0.833338C0.612324 6.83333 0.400362 6.74553 0.244082 6.58925C0.0878015 6.43297 4.76857e-06 6.22101 4.76857e-06 5.99999C4.76857e-06 5.77898 0.0878015 5.56702 0.244082 5.41074C0.400362 5.25446 0.612324 5.16666 0.833338 5.16666Z" fill="#F5F5F5"/>
</svg>
